<svg preserveAspectRatio="xMidYMid meet" data-bbox="0.755 0.178 1932.366 377.948" xmlns="http://www.w3.org/2000/svg"
     viewBox="0 0 1934 379" fill-rule="evenodd" clip-rule="evenodd" stroke-linejoin="round" stroke-miterlimit="2"
     data-type="ugc" role="img" aria-label="Valven Logo">
    <g>
        <path d="M687.2 349.315V29.004c0-15.889 12.916-28.81 28.824-28.81s28.82 12.921 28.82 28.81v291.453H921.64a28.84 28.84 0 0 1 0 57.669H716.024a28.84 28.84 0 0 1-28.825-28.81ZM1874.907 258.1V29.29c0-16.08 13.026-29.097 29.097-29.097h.02c16.07 0 29.097 13.017 29.097 29.097v322.13c0 14.74-11.96 26.705-26.714 26.705h-.005a26.68 26.68 0 0 1-21.431-10.816c-37.889-51.064-197.437-266.137-197.437-266.137v248.142c0 15.89-12.902 28.81-28.82 28.81h-.005a28.83 28.83 0 0 1-28.82-28.81V31.35A31.155 31.155 0 0 1 1661.076.194h.392a31.232 31.232 0 0 1 24.733 12.155c39.272 51.16 188.708 245.75 188.708 245.75Zm-769.562 35.75 111.231-275.613A28.628 28.628 0 0 1 1232.03 2.49a28.873 28.873 0 0 1 22.058-.24h.005c14.764 5.983 21.9 22.78 15.941 37.52-27.312 67.72-98.96 245.224-126 312.225a41.708 41.708 0 0 1-38.683 26.13h-.01a41.713 41.713 0 0 1-38.683-26.13c-27.04-67.001-98.687-244.505-126-312.224A28.849 28.849 0 0 1 956.6 2.252h.004a28.873 28.873 0 0 1 22.058.239 28.612 28.612 0 0 1 15.453 15.745c29.83 73.892 111.231 275.612 111.231 275.612ZM1348.166.193h205.616c15.913 0 28.825 12.921 28.825 28.81s-12.912 28.81-28.825 28.81h-176.796V158.89h145.34a25.604 25.604 0 0 1 25.57 25.604c0 14.118-11.457 25.556-25.57 25.556h-145.34v110.407h176.796a28.834 28.834 0 0 1 0 57.669h-205.615a28.84 28.84 0 0 1-28.825-28.81V29.003c0-15.889 12.917-28.81 28.825-28.81ZM167.547 293.848 278.772 18.236A28.638 28.638 0 0 1 294.23 2.49a28.858 28.858 0 0 1 22.053-.24h.01a28.849 28.849 0 0 1 15.94 37.52c-27.316 67.72-98.964 245.224-126.004 312.225a41.708 41.708 0 0 1-38.678 26.13h-.015a41.708 41.708 0 0 1-38.678-26.13c-27.04-67.001-98.688-244.505-126-312.224C-3.1 25.032 4.035 8.234 18.795 2.252h.01a28.873 28.873 0 0 1 22.057.239 28.627 28.627 0 0 1 15.453 15.745l111.23 275.612ZM473.179 84.423s81.402 201.768 111.227 275.66a28.94 28.94 0 0 0 15.458 15.746 28.858 28.858 0 0 0 22.052.191h.01a28.834 28.834 0 0 0 15.941-37.52C610.55 270.829 538.902 93.277 511.863 26.276A41.66 41.66 0 0 0 473.184.194h-.014a41.66 41.66 0 0 0-38.679 26.082l-126 312.224a28.83 28.83 0 0 0 15.937 37.52h.01c7.087 2.872 15.022 2.776 22.057-.191a28.93 28.93 0 0 0 15.454-15.746c29.825-73.892 111.23-275.66 111.23-275.66Z"
              fill="#10069f"></path>
    </g>
</svg>